<svg width="26" height="26" viewBox="0 0 26 26" fill="none" xmlns="http://www.w3.org/2000/svg">
<path fill-rule="evenodd" clip-rule="evenodd" d="M13 26C20.1797 26 26 20.1797 26 13C26 5.82031 20.1797 0 13 0C5.8203 0 0 5.82031 0 13C0 20.1797 5.8203 26 13 26ZM11.3751 18.7515C11.5628 18.7515 11.7434 18.6771 11.8759 18.5439L20.1251 10.294C20.5402 9.87961 20.5402 9.2067 20.1251 8.79163L19.6243 8.29083C19.2099 7.87573 18.537 7.87573 18.1219 8.29083L11.3751 15.0377L8.87819 12.5408C8.4631 12.1257 7.79089 12.1257 7.37581 12.5408L6.87502 13.0416C6.45993 13.456 6.45993 14.1289 6.87502 14.544L10.8743 18.5439C11.0067 18.6771 11.1874 18.7515 11.3751 18.7515Z" fill="#58D181"/>
</svg>
