<svg width="31" height="20" viewBox="0 0 31 20" fill="none" xmlns="http://www.w3.org/2000/svg">
<path d="M19.8012 1.24356L19.9192 1.10687C20.3519 0.674243 21.0291 0.634966 21.5062 0.989037L21.6428 1.10704L29.7623 9.22827C30.1947 9.66069 30.2342 10.3373 29.8806 10.8144L29.7628 10.9511L21.6433 19.0818C21.1677 19.5581 20.396 19.5586 19.9197 19.0829C19.4868 18.6505 19.447 17.9735 19.8006 17.4961L19.9185 17.3593L25.9487 11.319L2.09375 11.3205C1.47674 11.3205 0.966829 10.8621 0.886131 10.2671L0.875 10.1017C0.875 9.4847 1.33349 8.97494 1.92837 8.89417L2.09375 8.88296L25.9699 8.8815L19.919 2.83046C19.4865 2.39772 19.4471 1.72065 19.8012 1.24356L19.9192 1.10687L19.8012 1.24356Z" fill="white"/>
</svg>
