<svg width="31" height="20" viewBox="0 0 31 20" fill="none" xmlns="http://www.w3.org/2000/svg">
<path d="M11.1988 18.7564L11.0808 18.8931C10.6481 19.3258 9.97094 19.365 9.49384 19.011L9.35718 18.893L1.2377 10.7717C0.805289 10.3393 0.765802 9.66267 1.1194 9.18557L1.23721 9.0489L9.35669 0.918215C9.83232 0.441929 10.604 0.44144 11.0803 0.917078C11.5132 1.34949 11.553 2.02646 11.1994 2.50389L11.0815 2.64071L5.05125 8.681L28.9062 8.67954C29.5233 8.67954 30.0332 9.13795 30.1139 9.73286L30.125 9.89829C30.125 10.5153 29.6665 11.0251 29.0716 11.1058L28.9062 11.117L5.03012 11.1185L11.081 17.1695C11.5135 17.6023 11.5529 18.2794 11.1988 18.7564L11.0808 18.8931L11.1988 18.7564Z" fill="#5F282B"/>
</svg>
