<svg width="24" height="24" viewBox="0 0 24 24" fill="none" xmlns="http://www.w3.org/2000/svg">
<path d="M16.2759 14.1194L12.9296 11.6097V6.4974C12.9296 5.98337 12.5141 5.56787 12.0001 5.56787C11.4861 5.56787 11.0706 5.98337 11.0706 6.4974V12.0745C11.0706 12.3673 11.2081 12.6434 11.4424 12.8181L15.1604 15.6067C15.3277 15.7322 15.5229 15.7926 15.7172 15.7926C16.0007 15.7926 16.2795 15.6652 16.4618 15.4198C16.7704 15.0099 16.6868 14.4271 16.2759 14.1194Z" fill="white"/>
<path d="M12 0C5.3828 0 0 5.3828 0 12C0 18.6172 5.3828 24 12 24C18.6172 24 24 18.6172 24 12C24 5.3828 18.6172 0 12 0ZM12 22.141C6.40898 22.141 1.85902 17.591 1.85902 12C1.85902 6.40898 6.40898 1.85902 12 1.85902C17.592 1.85902 22.141 6.40898 22.141 12C22.141 17.591 17.591 22.141 12 22.141Z" fill="white"/>
</svg>
