<svg width="24" height="24" viewBox="0 0 24 24" fill="none" xmlns="http://www.w3.org/2000/svg">
<path d="M10.1099 1.85915C10.2026 1.34974 9.86477 0.861654 9.35537 0.768972C8.84595 0.676272 8.35787 1.01409 8.26519 1.52349L7.38227 6.37592L3.55504 6.3755C3.03728 6.37547 2.6175 6.79515 2.61744 7.31291C2.61739 7.83067 3.03709 8.25047 3.55485 8.2505L7.04113 8.25088L5.67658 15.7504L1.68746 15.7506C1.1697 15.7506 0.749981 16.1704 0.75 16.6881C0.750019 17.2057 1.16978 17.6256 1.68754 17.6256L5.33542 17.6254L4.51301 22.1452C4.42033 22.6547 4.75815 23.1427 5.26755 23.2356C5.77695 23.3282 6.26505 22.9903 6.35773 22.4809L7.24123 17.6252L14.7079 17.625L13.885 22.1419C13.7922 22.6511 14.1298 23.1394 14.6392 23.2322C15.1486 23.325 15.6368 22.9873 15.7296 22.4779L16.6138 17.6248H20.4375C20.9554 17.6246 21.375 17.205 21.375 16.6871C21.375 16.1694 20.9552 15.7497 20.4375 15.7497L16.9554 15.7499L18.3216 8.25206L22.3125 8.25247C22.8304 8.25253 23.2502 7.83285 23.2502 7.31507C23.2502 6.7973 22.8306 6.37753 22.3129 6.37747L18.6632 6.3771L19.4861 1.86063C19.5789 1.35125 19.2412 0.863078 18.7318 0.770266C18.2224 0.677453 17.7343 1.01516 17.6415 1.52454L16.7574 6.37689L9.28802 6.3761L10.1099 1.85915ZM8.94688 8.25108L16.4158 8.25185L15.0496 15.7499L7.58239 15.7502L8.94688 8.25108Z" fill="white"/>
</svg>
