<svg width="64" height="64" viewBox="0 0 64 64" fill="none" xmlns="http://www.w3.org/2000/svg">
<path d="M47.9995 16C47.4994 15.5001 46.8213 15.2192 46.1142 15.2192C45.4071 15.2192 44.7289 15.5001 44.2288 16L31.9995 28.2293L19.7702 16C19.2701 15.5001 18.592 15.2192 17.8848 15.2192C17.1777 15.2192 16.4996 15.5001 15.9995 16C15.4996 16.5001 15.2188 17.1782 15.2188 17.8853C15.2188 18.5924 15.4996 19.2706 15.9995 19.7707L28.2288 32L15.9995 44.2293C15.4996 44.7294 15.2188 45.4076 15.2188 46.1147C15.2188 46.8218 15.4996 47.4999 15.9995 48C16.4996 48.4999 17.1777 48.7808 17.8848 48.7808C18.592 48.7808 19.2701 48.4999 19.7702 48L31.9995 35.7707L44.2288 48C44.7289 48.4999 45.4071 48.7808 46.1142 48.7808C46.8213 48.7808 47.4994 48.4999 47.9995 48C48.4994 47.4999 48.7803 46.8218 48.7803 46.1147C48.7803 45.4076 48.4994 44.7294 47.9995 44.2293L35.7702 32L47.9995 19.7707C48.4994 19.2706 48.7803 18.5924 48.7803 17.8853C48.7803 17.1782 48.4994 16.5001 47.9995 16Z" fill="white"/>
</svg>
